<svg width="17" height="20" viewBox="0 0 17 20" fill="none" xmlns="http://www.w3.org/2000/svg">
<g clip-path="url(#clip0_14151_93682)">
<path d="M12.7151 15.9941H4.71509L8.71509 19.9941L12.7151 15.9941Z" fill="black"/>
<path d="M8.71753 11.9961H0.717529L4.71753 15.9961L8.71753 11.9961Z" fill="black"/>
<path d="M16.7126 11.9961H8.71265L12.7126 15.9961L16.7126 11.9961Z" fill="black"/>
<path d="M12.7151 7.99414H4.71509L8.71509 11.9941L12.7151 7.99414Z" fill="black"/>
<path d="M16.7102 7.99414H12.7102L16.7102 11.9941V7.99414Z" fill="black"/>
<path d="M0.715088 7.99414H4.71509L0.715088 11.9941V7.99414Z" fill="black"/>
<path d="M0.715088 0H4.71509L0.715088 4V0Z" fill="black"/>
<path d="M16.7102 0H12.7102L16.7102 4V0Z" fill="black"/>
<path d="M8.71753 4.00195H0.717529L4.71753 8.00195L8.71753 4.00195Z" fill="black"/>
<path d="M16.7126 3.99805H8.71265L12.7126 7.99805L16.7126 3.99805Z" fill="black"/>
<path d="M12.7151 0H4.71509L8.71509 4L12.7151 0Z" fill="black"/>
</g>
<defs>
<clipPath id="clip0_14151_93682">
<rect width="16" height="20" fill="white" transform="translate(0.716797)"/>
</clipPath>
</defs>
</svg>
