<svg width="132" height="49" viewBox="0 0 132 49" fill="none" xmlns="http://www.w3.org/2000/svg">
<path d="M109.444 20.6384H112.414L116.209 30.5054L120.334 19.4834L124.756 30.5714L128.584 20.6384H131.554L124.954 36.9734L120.367 25.9184L116.044 36.9734L109.444 20.6384Z" fill="#C39B71"/>
<path d="M93.8928 28.2283C93.8928 26.6883 94.2338 25.3244 94.9158 24.1364C95.6198 22.9484 96.5658 22.0134 97.7538 21.3314C98.9418 20.6493 100.273 20.3083 101.747 20.3083C103.243 20.3083 104.574 20.6493 105.74 21.3314C106.928 22.0134 107.863 22.9484 108.545 24.1364C109.249 25.3244 109.601 26.6883 109.601 28.2283C109.601 29.7463 109.249 31.1103 108.545 32.3203C107.863 33.5083 106.928 34.4433 105.74 35.1253C104.574 35.8073 103.243 36.1484 101.747 36.1484C100.273 36.1484 98.9418 35.8073 97.7538 35.1253C96.5658 34.4433 95.6198 33.5083 94.9158 32.3203C94.2338 31.1103 93.8928 29.7463 93.8928 28.2283ZM96.5658 28.2283C96.5658 29.2843 96.7858 30.2193 97.2258 31.0333C97.6878 31.8474 98.3038 32.4963 99.0738 32.9803C99.8658 33.4423 100.757 33.6733 101.747 33.6733C102.737 33.6733 103.617 33.4423 104.387 32.9803C105.179 32.4963 105.795 31.8474 106.235 31.0333C106.697 30.2193 106.928 29.2843 106.928 28.2283C106.928 27.1723 106.697 26.2373 106.235 25.4233C105.795 24.5873 105.179 23.9383 104.387 23.4763C103.617 23.0143 102.737 22.7833 101.747 22.7833C100.757 22.7833 99.8658 23.0143 99.0738 23.4763C98.3038 23.9383 97.6878 24.5873 97.2258 25.4233C96.7858 26.2373 96.5658 27.1723 96.5658 28.2283Z" fill="#C39B71"/>
<path d="M88.5972 10.0784H91.2372V35.8184H88.5972V10.0784Z" fill="#C39B71"/>
<path d="M78.99 20.6384H86.58V23.1134H78.99V20.6384ZM86.316 13.2464C86.096 12.8724 85.832 12.6414 85.524 12.5534C85.238 12.4434 84.963 12.3884 84.699 12.3884C84.369 12.3884 84.083 12.4874 83.841 12.6854C83.621 12.8614 83.445 13.1694 83.313 13.6094C83.181 14.0494 83.115 14.6324 83.115 15.3584V35.8184H80.475V15.0284C80.475 13.8184 80.651 12.8284 81.003 12.0584C81.355 11.2884 81.85 10.7164 82.488 10.3424C83.148 9.94635 83.94 9.74835 84.864 9.74835C85.348 9.74835 85.777 9.81435 86.151 9.94635C86.525 10.0784 86.844 10.2434 87.108 10.4414C87.394 10.6394 87.614 10.8484 87.768 11.0684L86.316 13.2464Z" fill="#C39B71"/>
<path d="M68.4523 31.1653C68.7603 31.6273 69.1123 32.0563 69.5083 32.4523C69.9043 32.8483 70.3553 33.1673 70.8613 33.4093C71.3893 33.6293 71.9613 33.7394 72.5773 33.7394C73.3253 33.7394 73.9083 33.5743 74.3263 33.2443C74.7663 32.8923 74.9863 32.4193 74.9863 31.8253C74.9863 31.2973 74.8103 30.8574 74.4583 30.5054C74.1283 30.1314 73.6993 29.8234 73.1713 29.5814C72.6433 29.3174 72.0823 29.0753 71.4883 28.8553C70.8283 28.5913 70.1573 28.2833 69.4753 27.9313C68.8153 27.5573 68.2543 27.0843 67.7923 26.5124C67.3523 25.9183 67.1323 25.1813 67.1323 24.3013C67.1323 23.3993 67.3633 22.6513 67.8253 22.0573C68.3093 21.4633 68.9253 21.0233 69.6733 20.7373C70.4433 20.4513 71.2353 20.3083 72.0493 20.3083C72.8633 20.3083 73.6223 20.4403 74.3263 20.7043C75.0523 20.9684 75.6903 21.3203 76.2403 21.7603C76.7903 22.2003 77.2193 22.7063 77.5273 23.2783L75.4153 24.6313C74.9973 24.0593 74.4693 23.5863 73.8313 23.2123C73.2153 22.8383 72.5113 22.6514 71.7193 22.6514C71.1693 22.6514 70.6963 22.7723 70.3003 23.0143C69.9043 23.2563 69.7063 23.6304 69.7063 24.1364C69.7063 24.5324 69.8603 24.8843 70.1683 25.1923C70.4763 25.5003 70.8723 25.7753 71.3563 26.0173C71.8403 26.2593 72.3463 26.4903 72.8743 26.7103C73.7543 27.0623 74.5573 27.4473 75.2833 27.8653C76.0093 28.2613 76.5813 28.7454 76.9993 29.3174C77.4393 29.8894 77.6593 30.6263 77.6593 31.5283C77.6593 32.8483 77.1753 33.9483 76.2073 34.8283C75.2613 35.7083 74.0073 36.1484 72.4453 36.1484C71.4333 36.1484 70.5203 35.9723 69.7063 35.6203C68.8923 35.2463 68.1993 34.7733 67.6273 34.2013C67.0773 33.6293 66.6593 33.0463 66.3733 32.4523L68.4523 31.1653Z" fill="#C39B71"/>
<path d="M63.8564 26.2483V35.8183H61.2164V26.5784C61.2164 25.2803 60.9744 24.3233 60.4904 23.7073C60.0284 23.0913 59.3024 22.7833 58.3124 22.7833C57.5864 22.7833 56.9594 22.9373 56.4314 23.2453C55.9034 23.5313 55.4964 23.9604 55.2104 24.5324C54.9244 25.1044 54.7814 25.7863 54.7814 26.5784V35.8183H52.1414V26.5784C52.1414 25.2803 51.8994 24.3233 51.4154 23.7073C50.9534 23.0913 50.2274 22.7833 49.2374 22.7833C48.5114 22.7833 47.8844 22.9373 47.3564 23.2453C46.8284 23.5313 46.4214 23.9604 46.1354 24.5324C45.8494 25.1044 45.7064 25.7863 45.7064 26.5784V35.8183H43.0664V20.6383H45.7064V22.8493C46.1684 21.9913 46.7404 21.3533 47.4224 20.9353C48.1264 20.5173 48.9514 20.3083 49.8974 20.3083C50.9534 20.3083 51.8554 20.5613 52.6034 21.0673C53.3734 21.5513 53.9344 22.2443 54.2864 23.1463C54.8144 22.2003 55.4744 21.4963 56.2664 21.0343C57.0584 20.5503 57.9604 20.3083 58.9724 20.3083C60.0064 20.3083 60.8864 20.5393 61.6124 21.0013C62.3384 21.4633 62.8884 22.1453 63.2624 23.0473C63.6584 23.9274 63.8564 24.9943 63.8564 26.2483Z" fill="#C39B71"/>
<path d="M32.9469 36.1484C31.5389 36.1484 30.2849 35.8184 29.1849 35.1583C28.1069 34.4763 27.2599 33.5413 26.6439 32.3533C26.0499 31.1653 25.7529 29.7903 25.7529 28.2283C25.7529 26.6443 26.0609 25.2583 26.6769 24.0703C27.3149 22.8823 28.1949 21.9583 29.3169 21.2983C30.4609 20.6383 31.7809 20.3083 33.2769 20.3083C34.7729 20.3083 36.0489 20.6273 37.1049 21.2653C38.1829 21.8813 39.0079 22.7723 39.5799 23.9383C40.1519 25.1043 40.4379 26.4903 40.4379 28.0963C40.4379 28.2503 40.4269 28.4153 40.4049 28.5913C40.4049 28.7453 40.4049 28.8443 40.4049 28.8883H27.4359V26.6443H38.3259L37.2699 28.1623C37.3359 28.0523 37.4019 27.8873 37.4679 27.6673C37.5339 27.4253 37.5669 27.2273 37.5669 27.0733C37.5669 26.1713 37.3799 25.3903 37.0059 24.7303C36.6539 24.0703 36.1589 23.5533 35.5209 23.1793C34.8829 22.8054 34.1349 22.6183 33.2769 22.6183C32.2649 22.6183 31.3959 22.8383 30.6699 23.2783C29.9659 23.6963 29.4159 24.3123 29.0199 25.1264C28.6459 25.9184 28.4479 26.8973 28.4259 28.0633C28.4259 29.2513 28.6129 30.2633 28.9869 31.0993C29.3609 31.9354 29.9109 32.5733 30.6369 33.0133C31.3629 33.4533 32.2429 33.6733 33.2769 33.6733C34.3109 33.6733 35.2239 33.4533 36.0159 33.0133C36.8079 32.5513 37.4789 31.8583 38.0289 30.9343L40.1739 32.2873C39.3819 33.5633 38.3809 34.5314 37.1709 35.1914C35.9829 35.8294 34.5749 36.1484 32.9469 36.1484Z" fill="#C39B71"/>
<path fill-rule="evenodd" clip-rule="evenodd" d="M6.90018 14.0015C6.07517 14.483 5.32614 15.0673 4.65307 15.7544C3.59707 16.8104 2.77207 18.0644 2.17807 19.5164C1.60607 20.9684 1.32007 22.5524 1.32007 24.2684C1.32007 25.9844 1.60607 27.5684 2.17807 29.0204C2.77207 30.4724 3.59707 31.7374 4.65307 32.8154C5.70907 33.8714 6.95207 34.6964 8.38207 35.2904C9.81207 35.8624 11.3631 36.1484 13.0351 36.1484C14.7951 36.1484 16.3571 35.8294 17.7211 35.1914C19.1071 34.5314 20.2731 33.6404 21.2191 32.5184C22.1651 31.3964 22.8801 30.1204 23.3641 28.6904C23.8481 27.2384 24.0901 25.7094 24.0901 24.1034H13.3651V26.7434H21.0541C20.8561 27.6454 20.5371 28.4924 20.0971 29.2844C19.6791 30.0764 19.1401 30.7804 18.4801 31.3964C17.8201 32.0124 17.0281 32.4964 16.1041 32.8484C15.2021 33.1784 14.1791 33.3434 13.0351 33.3434C11.4071 33.3434 9.93307 32.9584 8.61307 32.1884C7.29307 31.4184 6.23707 30.3514 5.44507 28.9874C4.67507 27.6234 4.29007 26.0504 4.29007 24.2684C4.29007 22.4644 4.67507 20.8914 5.44507 19.5494C6.23707 18.1854 7.29307 17.1184 8.61307 16.3484C8.68596 16.3059 8.75931 16.2646 8.83314 16.2244L6.90018 14.0015ZM16.9334 15.9181C17.1698 16.0181 17.3993 16.1286 17.6221 16.2494C18.9201 16.9314 19.9321 17.8884 20.6581 19.1204L22.6381 17.3054C21.9781 16.2274 21.1641 15.3254 20.1961 14.5994C19.7705 14.2728 19.3182 13.9818 18.8392 13.7264L16.9334 15.9181Z" fill="#C39B71"/>
<path opacity="0.8" d="M12.75 18.4429L5.25 9.81787L8.25 6.06787H17.25L20.25 9.81787L12.75 18.4429Z" fill="url(#paint0_linear_13056_88049)"/>
<defs>
<linearGradient id="paint0_linear_13056_88049" x1="12.75" y1="6.06787" x2="12.75" y2="21.4429" gradientUnits="userSpaceOnUse">
<stop stop-color="#C39B71"/>
<stop offset="0.819953" stop-color="#C39B71" stop-opacity="0.4"/>
</linearGradient>
</defs>
</svg>
